<svg width="91" height="144" viewBox="0 0 91 144" fill="none" xmlns="http://www.w3.org/2000/svg">
<g clip-path="url(#clip0_604_2628)">
<g clip-path="url(#clip1_604_2628)">
<path d="M25.6057 27.5834L27.0054 21.4743C26.7662 20.8391 27.0221 20.1106 27.6365 19.7808C28.7192 17.9837 30.3235 17.1432 32.4233 17.2113C32.9845 16.9101 33.6578 17.0425 34.0737 17.4864C35.0691 16.1724 36.4779 15.4699 38.2198 15.2608C38.0797 14.669 38.3415 14.0345 38.9027 13.7333C40.0067 12.0539 41.698 11.3386 43.6895 11.1638C44.3588 10.8046 45.1925 11.0559 45.5517 11.7251L45.8207 12.2261L50.6676 14.2852L50.2478 15.0098L46.2201 12.9974C47.1157 14.9458 46.356 17.2789 44.4408 18.307C42.4497 19.3758 39.9692 18.6281 38.9004 16.637L38.4166 15.7357L34.3608 17.9128L34.8446 18.8141C35.9134 20.8052 35.1657 23.2857 33.1746 24.3545C31.1835 25.4233 28.703 24.6756 27.6342 22.6845L27.4209 22.2871L26.7668 27.6139L25.6057 27.5834Z" fill="#3F3D56"/>
<path d="M44.0958 35.1295L49.6732 41.8224L46.6986 20.2562L45.5955 20.8077C44.4454 21.3828 43.7109 22.5501 43.6902 23.8358L44.0958 35.1295Z" fill="#2F2E41"/>
<path d="M81.0789 124.116L77.6252 103.677L85.0373 100.695L86.5863 123.295C87.2804 123.719 87.8646 124.34 88.2398 125.13C89.2673 127.292 88.3474 129.878 86.1851 130.906C84.0227 131.933 81.4368 131.013 80.4092 128.851C79.6403 127.233 79.9623 125.378 81.0789 124.116Z" fill="#FFB6B6"/>
<path d="M23.8955 33.3336L10.4407 49.1019L3.396 45.333L19.7306 29.6377C19.61 28.8334 19.7116 27.9864 20.0761 27.1921C21.0744 25.0161 23.6478 24.0614 25.8238 25.0598C27.9998 26.0582 28.9544 28.6315 27.956 30.8075C27.2089 32.4358 25.58 33.3796 23.8955 33.3336Z" fill="#FFB6B6"/>
<path d="M53.605 41.3492C59.7576 41.3492 64.7454 36.3615 64.7454 30.2088C64.7454 24.0561 59.7576 19.0684 53.605 19.0684C47.4523 19.0684 42.4646 24.0561 42.4646 30.2088C42.4646 36.3615 47.4523 41.3492 53.605 41.3492Z" fill="#FFB6B6"/>
<path d="M38.2434 100.876L68.2647 97.5967L69.3802 102.802V104.05L70.0208 104.794L70.2555 105.728L70.8675 105.777C70.8675 105.777 70.5115 106.408 70.767 106.75C70.9639 107.015 71.7279 106.924 72.0389 107.377C75.1917 111.974 83.3604 125.984 79.4196 142.96L79.9774 171.033L79.4619 173.241L80.0583 174.675L80.4848 176.822L81.0929 221.231L82.5802 226.436L80.3492 233.129L66.9633 233.873L64.7323 225.321L65.8478 214.538L62.5013 182.932L61.5605 181.425L62.1005 179.89L62.5835 177.845L61.5522 175.73L57.8964 147.988C56.9438 145.763 56.5495 143.338 56.7478 140.925L56.8314 139.907L56.1802 134.966L38.1464 164.339L32.126 174.765L32.7548 179.214L36.7292 204.43L42.3553 210.568L43.3783 218.751L35.1948 223.866L25.9883 220.797V214.66L11.9481 176.31L27.921 129.016L30.5238 126.785L30.152 123.811L32.6084 121.354L37.5215 110.331L39.7778 105.479L38.2434 100.876Z" fill="#2F2E41"/>
<path d="M48.3717 42.0081H60.2045L62.8731 50.1883L79.6055 57.9968L75.8872 75.4728L71.4253 90.7179L70.1107 92.0325L70.6816 94.4362H67.7933L68.2647 97.5968L71.4253 102.245L37.4177 101.517V93.9312L40.0789 83.2231C36.7194 75.8323 38.5933 71.3811 39.0559 63.2758L36.1013 52.0475L45.3971 51.1384L48.3717 42.0081Z" fill="#FD6584"/>
<path d="M40.6652 63.4089L43.268 57.0878C43.268 57.0878 42.8962 52.6258 35.0878 51.5103C27.2793 50.3948 12.4548 49.2793 12.4548 49.2793L16.0399 45.3743L17.5743 41.2825L10.4137 37.7023L6.30822 39.7201L4.78757 42.3055L5.29904 43.3284L3.07848 44.6758C0.314163 49.0736 1.49595 54.8676 5.7618 57.8314L7.4204 59.49L9.85194 60.8061L12.8266 60.4342L40.6652 63.4089Z" fill="#FD6584"/>
<path d="M70.8676 59.4846L77.1887 56.8818C77.1887 56.8818 81.6507 57.2536 82.7662 65.0621C83.8816 72.8705 84.9971 93.3212 84.9971 93.3212L86.8563 97.4114V98.5547L88.5003 102.059L87.5121 103.047L90.2028 105.22L77.9323 109.682L75.292 102.933L76.445 100.014L74.7864 98.3556L73.4704 95.924L73.8422 92.9494L70.8676 59.4846Z" fill="#FD6584"/>
<path d="M74.7732 53.0438H71.7249C70.7072 51.6628 70.5281 50.7525 70.615 49.0646C70.4717 50.2052 68.0474 46.7169 68.1855 48.0365C68.2163 48.323 69.6945 53.2791 69.7454 53.5553C68.3289 54.8493 66.6868 55.5296 64.8865 55.7648C65.4594 54.0309 64.8765 53.095 63.1118 53.2484C63.2037 54.1281 63.0863 55.0283 62.7946 55.862C57.4652 55.683 51.0309 52.5784 44.6735 50.1438C44.4432 48.5429 44.7244 46.8653 45.5071 45.4485C44.8523 46.5431 44.213 47.6427 43.7527 48.8294C43.6505 49.0953 43.5584 49.3664 43.4765 49.6375C43.4203 49.8318 43.3691 50.0262 43.3231 50.2154L40.377 50.374C42.8781 46.7579 42.4228 41.6892 45.4662 38.9631C50.3096 34.631 46.2231 28.3245 44.1977 22.4478C44.1363 20.9236 45.0723 19.5324 46.5096 19.0159L50.4427 17.6042C55.4448 15.8089 55.1943 14.7809 60.0275 17.7525C64.861 16.2693 73.3257 24.1613 73.3257 30.0278C73.3257 30.5392 73.3871 31.0354 73.4843 31.511C72.9166 31.5827 72.3642 31.7667 71.8732 32.0634C72.5433 32.4419 73.1978 32.8511 73.8272 33.296C74.3182 36.3137 74.2822 39.3927 73.5814 42.3797C72.7937 45.7401 74.226 51.4429 74.7732 53.0438Z" fill="#2F2E41"/>
<path d="M24.3793 115.621C26.4742 115.621 28.1724 113.922 28.1724 111.828C28.1724 109.733 26.4742 108.034 24.3793 108.034C22.2844 108.034 20.5862 109.733 20.5862 111.828C20.5862 113.922 22.2844 115.621 24.3793 115.621Z" fill="#9E616A"/>
<path d="M23.9205 72.0003C17.9634 72.0425 13.0857 76.8936 13.0011 82.8627C13.0003 82.9178 13 83.3053 13 83.8121C13 84.5553 13.2946 85.2679 13.819 85.7934C14.3434 86.3189 15.0545 86.6142 15.7961 86.6143C16.1637 86.6142 16.5277 86.5415 16.8673 86.4004C17.2069 86.2593 17.5154 86.0525 17.7752 85.7919C18.035 85.5313 18.241 85.2219 18.3814 84.8815C18.5219 84.5411 18.594 84.1762 18.5937 83.8078C18.5934 83.4631 18.5932 83.2245 18.5932 83.2098C18.593 82.2873 18.8325 81.3806 19.288 80.5789C19.7436 79.7773 20.3995 79.1083 21.1914 78.6377C21.9832 78.1672 22.8836 77.9113 23.8041 77.8952C24.7246 77.8791 25.6333 78.1035 26.441 78.5461C27.2487 78.9887 27.9275 79.6345 28.4107 80.4197C28.8938 81.205 29.1646 82.1028 29.1965 83.0248C29.2284 83.9467 29.0202 84.8611 28.5924 85.678C28.1647 86.4949 27.5321 87.1861 26.7568 87.6837L26.7578 87.6849C26.7578 87.6849 22.7781 90.2523 21.5647 93.7743L21.5658 93.7746C21.3524 94.4961 21.2443 95.2447 21.2448 95.9973C21.2448 96.3066 21.263 99.0132 21.2981 101.21C21.3103 101.968 21.6195 102.691 22.1588 103.222C22.6981 103.754 23.4243 104.052 24.1808 104.052C24.561 104.052 24.9373 103.976 25.2883 103.83C25.6393 103.684 25.9579 103.469 26.2258 103.199C26.4938 102.929 26.7058 102.608 26.8496 102.256C26.9935 101.903 27.0663 101.526 27.064 101.145C27.0518 99.1327 27.0452 96.7901 27.0452 96.62C27.0452 94.4574 29.1271 92.3026 30.8373 90.8974C32.8066 89.2793 34.2237 87.0742 34.7929 84.5868C34.9189 84.0747 34.9883 83.5503 35 83.023C35 81.5687 34.7128 80.1288 34.1551 78.7863C33.5973 77.4437 32.7799 76.225 31.75 75.2005C30.7201 74.1759 29.4981 73.3656 28.1544 72.8164C26.8106 72.2671 25.3717 71.9898 23.9205 72.0003Z" fill="#9E616A"/>
<path d="M16.6326 85.2752C15.8894 85.2752 15.1767 84.98 14.6512 84.4547C14.1257 83.9293 13.8305 83.2169 13.8304 82.474C13.8304 81.9673 13.8307 81.5799 13.8315 81.5248C13.8551 79.7893 14.2924 78.0845 15.1069 76.5517C13.7686 78.3832 13.0327 80.5851 13.0011 82.853C13.0003 82.9081 13 83.2954 13 83.8021C13 84.545 13.2953 85.2575 13.8208 85.7828C14.3463 86.3082 15.059 86.6033 15.8022 86.6034C16.4129 86.6032 17.0068 86.4037 17.4937 86.0353C17.9806 85.6668 18.334 85.1496 18.5 84.5621C17.9869 85.0221 17.3218 85.2761 16.6326 85.2752Z" fill="#3F3D56"/>
<path d="M24.1486 77.881C25.0121 77.9219 25.8528 78.1698 26.5984 78.6035C27.344 79.0372 27.9722 79.6437 28.4291 80.371C28.886 81.0982 29.1579 81.9245 29.2216 82.7788C29.2852 83.6332 29.1386 84.49 28.7944 85.2758C29.2923 84.6965 29.6582 84.0175 29.8673 83.2853C30.0763 82.5531 30.1236 81.7849 30.0058 81.0329C29.8881 80.281 29.6081 79.563 29.1849 78.928C28.7617 78.293 28.2053 77.7559 27.5536 77.3533C26.902 76.9507 26.1703 76.692 25.4086 76.5949C24.6469 76.4979 23.873 76.5647 23.1397 76.7908C22.4064 77.017 21.731 77.3971 21.1594 77.9053C20.5878 78.4136 20.1336 79.038 19.8276 79.7359C20.3564 79.1195 21.021 78.6318 21.7702 78.3102C22.5194 77.9886 23.3331 77.8417 24.1486 77.881Z" fill="#3F3D56"/>
<path d="M25.0358 102.718C24.256 102.718 23.5074 102.42 22.9515 101.886C22.3956 101.352 22.0769 100.627 22.0643 99.8662C22.0281 97.6614 22.0094 94.9449 22.0094 94.6344C22.0089 93.8791 22.1203 93.1277 22.3402 92.4036L22.3392 92.4033C22.4691 92.0398 22.6259 91.6861 22.8085 91.3448C22.248 92.0736 21.802 92.8797 21.4851 93.7368L21.4861 93.737C21.2662 94.4612 21.1548 95.2126 21.1553 95.9678C21.1553 96.2783 21.174 98.9948 21.2102 101.2C21.2228 101.96 21.5415 102.686 22.0974 103.219C22.6533 103.753 23.4019 104.052 24.1817 104.052C24.8246 104.052 25.4502 103.848 25.9646 103.472C26.4789 103.095 26.8544 102.566 27.0346 101.964C26.4882 102.45 25.7752 102.719 25.0358 102.718Z" fill="#3F3D56"/>
<path d="M23.5158 114.663C22.9832 114.43 22.5118 114.074 22.1388 113.626C21.7658 113.177 21.5014 112.647 21.3665 112.078C21.2315 111.509 21.2298 110.915 21.3613 110.345C21.4929 109.775 21.7541 109.244 22.1245 108.793C21.6951 109.109 21.3373 109.513 21.0748 109.979C20.8124 110.445 20.6513 110.961 20.6022 111.495C20.5531 112.028 20.6172 112.566 20.7902 113.072C20.9631 113.579 21.241 114.042 21.6055 114.432C21.9699 114.822 22.4124 115.13 22.9038 115.334C23.3952 115.539 23.9241 115.636 24.4555 115.619C24.9869 115.601 25.5085 115.471 25.9859 115.235C26.4632 114.999 26.8853 114.663 27.2241 114.251C26.6956 114.64 26.0752 114.883 25.4245 114.955C24.7739 115.027 24.1158 114.927 23.5158 114.663Z" fill="#3F3D56"/>
</g>
</g>
<defs>
<clipPath id="clip0_604_2628">
<rect width="89.6424" height="144" fill="white" transform="matrix(-1 0 0 1 90.4971 0)"/>
</clipPath>
<clipPath id="clip1_604_2628">
<rect width="89.64" height="144" fill="white" transform="translate(1)"/>
</clipPath>
</defs>
</svg>
